<?xml version="1.0" encoding="UTF-8"?>
<!DOCTYPE svg PUBLIC "-//W3C//DTD SVG 1.1//EN" "http://www.w3.org/Graphics/SVG/1.1/DTD/svg11.dtd">
<svg xmlns="http://www.w3.org/2000/svg" version="1.1" width="512px" height="512px" style="shape-rendering:geometricPrecision; text-rendering:geometricPrecision; image-rendering:optimizeQuality; fill-rule:evenodd; clip-rule:evenodd" xmlns:xlink="http://www.w3.org/1999/xlink">
<g><path fill="#6f5416" fill-opacity="0.996" stroke="#6f5416" stroke-width="0.5" stroke-opacity="0.996" d="M 237.05,0 c 8.96,0 17.93,0 26.9,0 c 0.33,0.81 0.9,1.31 1.73,1.5 c 3.32,-0.03 6.61,0.17 9.89,0.62 c 0.82,0.17 1.3,-0.12 1.46,-0.88 c 2.9,0.5 18.13,1.39 19.82,3.05 c 0.37,0.36 0.79,0.62 1.27,0.78 c 1.75,0.06 3.43,0.44 5.02,1.16 c 1.77,-0.16 3.43,0.18 5.01,1.01 c 0.8,-0.03 1.6,-0.04 2.41,-0.01 c 1.63,0.61 3.32,0.99 5.06,1.13 c 6.73,1.72 13.4,3.6 20.01,5.64 c 0.82,0.08 1.64,0.06 2.46,-0.08 c 0.07,0.36 0.28,0.57 0.65,0.65 c 1.14,-0.16 7.43,1.89 9.25,2.23 c 0.03,0.43 0.24,0.77 0.61,1 c 4.2,1.62 8.39,3.26 12.57,4.92 c 0.28,-0.01 0.57,-0.01 0.86,-0.02 c 0.17,0.7 0.61,1.18 1.29,1.44 c 3.91,1.76 7.78,3.61 11.6,5.55 c 0.71,0.31 1.45,0.41 2.22,0.28 c 1.39,1.31 3,2.25 4.84,2.82 c 0,0.46 0.18,0.84 0.54,1.14 c 5.07,2.95 10.05,6.01 14.94,9.17 c 3.74,2.56 7.44,5.2 11.08,7.9 c 1.65,1.25 3.2,2.61 4.66,4.07 c 0.77,0.34 1.54,0.67 2.32,1 c 1.36,2.64 3.11,3.21 5.41,4.62 c 8.25,7.02 16.09,14.47 23.54,22.35 c 3.86,4.46 7.67,8.97 11.41,13.52 c 2.05,2.4 3.82,4.99 5.3,7.76 c 1.31,0.53 2.04,1.5 2.18,2.91 c 1.21,1.17 2.17,2.52 2.88,4.07 c 0.75,1.01 1.73,1.57 2.94,1.68 c -0.19,1.45 0.41,2.37 1.8,2.78 c -0.1,0.8 0.01,1.58 0.32,2.33 c 6.75,10.69 12.74,21.78 17.97,33.28 c 0.27,0.34 0.62,0.51 1.05,0.51 c 0,0.37 -0.01,0.73 -0.01,1.09 c 2.99,8.61 6.11,17.17 9.38,25.69 c 0.68,2.31 1.4,4.6 2.15,6.88 c 0.45,2.83 1.1,5.61 1.94,8.33 c 0.44,0.22 0.9,0.27 1.38,0.15 c 2,10.89 3.87,21.81 5.6,32.76 c 0.54,1.28 -0.09,6.81 1.24,7.26 c 0,14.64 0,29.28 0,43.92 c -0.29,0.17 -0.48,0.41 -0.58,0.73 c -0.19,4.04 -0.65,8.05 -1.38,12.02 c -0.74,0.47 -1.23,1.12 -1.47,1.95 c 0.34,2.35 -0.62,5.14 0.4,7.32 c -0.39,0.23 -0.61,0.57 -0.64,1.02 c -1.57,5.45 -2.91,10.96 -4.03,16.52 c 0.1,0.56 0.34,1.06 0.72,1.5 c -0.43,0.25 -0.69,0.63 -0.79,1.12 c -0.38,0.01 -0.67,0.19 -0.87,0.53 c -1.95,7.54 -4.26,14.98 -6.91,22.32 c -0.27,0.71 -0.04,1.19 0.67,1.44 c -0.4,0.48 -0.69,1.02 -0.88,1.61 c -0.45,-0.01 -0.81,0.16 -1.08,0.52 c -0.74,2.52 -3.88,8.43 -3.77,10.69 c -2.78,5.38 -6.11,12.88 -8.25,18.71 c -0.74,0 -1.29,0.32 -1.66,0.96 c -4.87,8.99 -10.25,17.66 -16.13,26.02 c -0.32,0.7 -0.37,1.42 -0.16,2.16 c -1.46,0.14 -2.62,0.85 -3.47,2.11 c -0.99,1.86 -2.25,3.53 -3.77,5 c -0.41,0.69 -0.76,1.42 -1.06,2.17 c -1.63,1.29 -3.18,2.61 -3.86,4.69 c -2.47,2.99 -4.99,5.95 -7.55,8.88 c -0.43,0.7 -0.58,1.46 -0.45,2.28 c -1.27,-0.1 -1.85,0.48 -1.74,1.74 c -0.77,0.01 -1.41,0.31 -1.92,0.89 c -3,3.03 -6,6.05 -9.01,9.06 c -0.28,0.36 -0.38,0.76 -0.32,1.21 c -0.61,0.07 -0.95,0.42 -1.03,1.03 c -0.73,-0.21 -1.42,-0.12 -2.06,0.3 c -5.61,4.98 -11.25,10.43 -17.73,14.24 c -1.5,1.31 -1.12,2.35 -3.42,2.73 c -1.16,1.21 -2.52,2.15 -4.06,2.83 c -0.62,1.22 -1.6,1.94 -2.94,2.18 c -2.84,2.12 -5.75,4.14 -8.73,6.07 c -3.43,1.83 -6.76,3.83 -10.01,5.99 c -7.38,4.18 -14.96,7.96 -22.74,11.35 c -0.69,0.23 -1.12,0.69 -1.29,1.38 c -0.37,0.01 -0.74,0.02 -1.1,0.03 c -7.55,2.98 -15.2,5.72 -22.93,8.24 c -2.24,0.71 -4.47,1.42 -6.7,2.14 c -3.41,0.68 -6.78,1.45 -10.13,2.3 c -0.41,0.24 -0.81,0.51 -1.19,0.8 c -3.39,0.65 -6.73,1.48 -10.04,2.47 c -0.36,0.17 -0.68,0.39 -0.95,0.69 c -4.37,-0.73 -8.19,1.01 -12.48,1.19 c -0.75,0.07 -1.37,0.39 -1.86,0.94 c -4.1,0.07 -7.65,1.78 -12,1.31 c -0.28,0.05 -0.51,0.19 -0.67,0.41 c -14.65,-0.02 -29.3,-0.04 -43.96,-0.06 c -6.21,-0.69 -17.44,-1.28 -22.74,-3.39 c -2.45,-0.26 -6.93,-1.7 -9.19,-1.14 c 0.04,-0.52 -0.16,-0.92 -0.6,-1.21 c -2.35,-0.23 -4.66,-0.68 -6.92,-1.36 c -1.08,-0.43 -2.16,-0.88 -3.24,-1.34 c -8.92,-2.17 -17.63,-5.02 -26.12,-8.56 c -1.74,-0.82 -3.52,-0.99 -5.34,-0.52 c 0.33,-1.02 -2.04,-1.97 -2.74,-2.76 c -6.7,-2.4 -13.18,-5.3 -19.43,-8.7 c -4.66,-2.66 -9.31,-5.33 -13.93,-8 c -1.49,-1.07 -3,-2.11 -4.54,-3.13 c -1.04,-0.58 -2.16,-0.79 -3.34,-0.62 c -0.53,-1.38 -1.52,-1.93 -2.96,-1.65 c -0.01,-1.26 -0.54,-2.27 -1.59,-3.03 c -1.54,-0.73 -2.9,-1.7 -4.1,-2.89 c -2.33,-0.3 -1.91,-1.29 -3.38,-2.63 c -2.46,-1.16 -4.7,-2.65 -6.73,-4.47 c -1.62,-2.15 -3.64,-3.81 -6.07,-4.98 c -2.58,-2.39 -5.25,-4.67 -8.02,-6.84 c -7.88,-7.45 -15.33,-15.29 -22.35,-23.54 c -1.39,-2.31 -2.27,-3.99 -4.56,-5.56 c -0.77,-2.2 -2.15,-3.72 -4.01,-5.02 c -0.51,-2.5 -1.22,-2.49 -2.98,-4.03 c -1.15,-1.59 -2.14,-3.29 -2.96,-5.07 c -2.32,-3.29 -4.64,-6.6 -6.96,-9.91 c -1.02,-1.71 -4.15,-8.66 -6.46,-8.32 c 0.24,-1.67 -0.37,-2.93 -1.83,-3.76 c 0.21,-0.88 0.16,-1.75 -0.14,-2.6 c -3.38,-6.35 -6.54,-12.8 -9.48,-19.36 c -1.65,-4.32 -3.42,-8.6 -5.31,-12.82 c -0.32,-0.38 -0.73,-0.54 -1.22,-0.46 c 0.67,-1.49 -2.76,-11.01 -3.76,-11.91 c 0.28,-1.2 0.29,-2.41 0.01,-3.61 c -1.6,-5.26 -3.18,-10.55 -4.12,-15.96 c -0.25,-0.98 -0.64,-1.9 -1.17,-2.75 c -1.66,-10.93 -4.36,-22 -5.08,-33.04 c -0.1,-0.36 -0.32,-0.63 -0.66,-0.79 c 0,-8.97 0,-17.95 0,-26.93 c 0.7,-0.45 1.23,-1.05 1.58,-1.8 c -0.32,-6.39 -0.1,-12.76 0.66,-19.11 c 0.34,-0.1 0.56,-0.34 0.67,-0.69 c 0.08,-2.26 0.48,-4.46 1.21,-6.59 c 0.01,-1.8 0.14,-3.59 0.39,-5.37 c 1.22,-6.37 2.54,-12.71 3.96,-19.04 c 1.18,-3.99 2.2,-8.02 3.06,-12.08 c 1.47,-5.11 3.16,-10.13 5.06,-15.08 c 0.28,-0.75 0.4,-1.52 0.35,-2.31 c 0.03,-0.68 0.15,-1.35 0.36,-2.01 c 1.67,-4.08 3.32,-8.17 4.96,-12.27 c 2.05,-4.3 4.08,-8.61 6.1,-12.92 c 2.41,-4.52 4.93,-8.98 7.56,-13.37 c 0.29,-0.87 0.34,-1.76 0.14,-2.66 c 1.47,-0.07 5.16,-6.2 4.71,-7.71 c 2.35,0.27 2.73,-1.52 3.56,-3.22 c 1.42,-1.04 2.38,-2.39 2.87,-4.08 c 1.45,-1 2.45,-2.34 3,-4.02 c 0.7,-0.61 1.38,-1.24 2.05,-1.89 c 0.38,-0.96 0.86,-1.88 1.41,-2.76 c 2.64,-3.34 5.31,-6.66 8.02,-9.95 c 3.1,-2.26 4.63,-5.19 7.05,-8.01 c 4.44,-4.47 8.89,-8.93 13.36,-13.36 c 4.79,-4.25 9.66,-8.41 14.59,-12.49 c 1.89,-1.58 3.92,-2.93 6.09,-4.06 c 1,-1.45 2.34,-2.44 4.02,-2.97 c 0.72,-0.6 1.36,-1.27 1.94,-2.02 c 3.98,-2.66 7.96,-5.3 11.96,-7.93 c 4.4,-2.64 8.84,-5.2 13.31,-7.68 c 9.97,-5.33 20.21,-10.07 30.71,-14.25 c 9.22,-3.35 18.55,-6.35 27.97,-9.01 c 6.21,-1.52 12.46,-2.88 18.73,-4.09 c 2.44,0.18 3.81,-0.27 6.03,-1.03 c 2.73,0.37 5.29,-0.12 7.69,-1.48 c 3.69,-0.65 7.42,-1.03 11.18,-1.12 c 0.34,-0.09 0.58,-0.29 0.74,-0.6 Z M 61.08,339.98 c -0.92,-0.04 -1.31,0.41 -1.15,1.34 c 0.69,1.83 1.47,3.63 2.34,5.39 c 0.29,0.76 0.1,1.37 -0.59,1.83 c 2.69,3.56 2.26,9.86 6.4,12.13 c 9.88,23.13 27.47,43.8 45.86,60.88 c 133.61,121.45 343.19,37.13 360.84,-140.19 c 2.29,-57.97 -12.26,-119.95 -53.84,-161.92 c -0.07,-0.37 0.05,-0.68 0.34,-0.9 c -6.77,-6.65 -13.53,-13.33 -20.29,-20.03 c -0.78,-0.9 -2.37,-0.95 -2.01,0.58 c -90.31,-81.15 -226.5,-71.94 -305.23,20.27 c -51.88,62.07 -64.32,146.04 -32.67,220.62 Z"/></g>
<g><path fill="#614b19" stroke="#614b19" stroke-width="0.5" d="M 61.08,339.98 c 56.46,128.88 217.26,169.46 327.98,81.61 c 101.71,-82.97 106.37,-233.38 9.92,-322.5 c -0.36,-1.53 1.23,-1.48 2.01,-0.58 c 6.76,6.7 13.52,13.38 20.29,20.03 c -0.29,0.22 -0.41,0.53 -0.34,0.9 c 41.58,41.97 56.13,103.95 53.84,161.92 c -17.65,177.32 -227.23,261.64 -360.84,140.19 c -18.39,-17.08 -35.98,-37.75 -45.86,-60.88 c -4.14,-2.27 -3.71,-8.57 -6.4,-12.13 c 0.69,-0.46 0.88,-1.07 0.59,-1.83 c -0.87,-1.76 -1.65,-3.56 -2.34,-5.39 c -0.16,-0.93 0.23,-1.38 1.15,-1.34 Z"/></g>
<g><path fill="#f5f1e8" stroke="#f5f1e8" stroke-width="0.5" d="M 398.98,99.09 c 96.45,89.12 91.79,239.53 -9.92,322.5 c -110.72,87.85 -271.52,47.27 -327.98,-81.61 c -31.65,-74.58 -19.21,-158.55 32.67,-220.62 c 78.73,-92.21 214.92,-101.42 305.23,-20.27 Z M 243.88,52.89 c -4.45,0.48 -8.9,0.87 -13.37,1.18 c -5.69,0.82 -11.36,1.79 -17.01,2.92 c -25.49,5.61 -49.88,16.02 -71.57,30.56 c -3.32,2.52 -6.67,4.98 -10.03,7.38 c -12.22,9.37 -23.24,20 -33.06,31.89 c -6.95,8.75 -13.3,17.91 -19.05,27.5 c -4.93,8.71 -9.26,17.7 -13.01,26.97 c -2.12,5.67 -4.09,11.39 -5.91,17.16 c -1.45,4.98 -2.75,10 -3.89,15.06 c -1.04,5.65 -2.01,11.32 -2.91,17 c -0.21,4.48 -0.61,8.93 -1.2,13.37 c -0.92,0.62 -1.4,1.51 -1.43,2.65 c -0.12,6.95 -0.13,13.9 -0.04,20.85 c 0.2,0.83 0.71,1.39 1.53,1.68 c 2.29,33.75 12.31,65.18 29.98,94.01 c 2.78,4.5 5.71,8.91 8.79,13.21 c 3.9,5.24 8.02,10.32 12.34,15.23 c 5.07,5.41 10.3,10.68 15.67,15.8 c 4.25,3.74 8.63,7.33 13.13,10.75 c 17.8,13.48 36.65,23.4 57.76,30.83 c 4.59,1.59 9.22,3.01 13.91,4.24 c 5.96,1.47 11.96,2.77 17.99,3.89 c 4.65,0.76 9.32,1.38 14.02,1.85 c 3.89,0.41 7.8,0.56 11.71,0.45 c 1.06,0.36 2.15,0.54 3.27,0.51 c 6.35,0.17 12.68,-0.02 18.99,-0.55 c 4.33,-0.52 8.67,-0.97 13.01,-1.33 c 7.04,-1.02 14.03,-2.34 20.96,-3.97 c 26.49,-6.87 51.77,-18.43 73.64,-34.94 c 4.22,-3.07 8.29,-6.33 12.2,-9.79 c 6.53,-6.11 12.85,-12.43 18.96,-18.96 c 3.08,-3.62 6.1,-7.29 9.04,-11.03 c 18.6,-24.98 31.36,-53.29 37.64,-83.77 c 1.03,-6.66 2.01,-13.33 2.95,-20 c 0.26,-4.68 0.57,-9.35 0.92,-14.01 c 0.01,-3.65 0.01,-7.31 -0.01,-10.96 c -0.34,-7.02 -0.93,-14.03 -1.75,-21.02 c -0.55,-4.35 -1.27,-8.68 -2.15,-12.98 c -0.98,-4 -1.9,-8.01 -2.76,-12.02 c -4.97,-18.52 -12.35,-36.03 -22.13,-52.53 c -3.35,-5.56 -6.91,-11 -10.68,-16.29 c -4.09,-5.54 -8.44,-10.86 -13.05,-15.98 c -8.41,-9.11 -17.5,-17.48 -27.25,-25.1 c -5.42,-4 -10.95,-7.83 -16.6,-11.48 c -5.7,-3.4 -11.5,-6.64 -17.39,-9.7 c -12.71,-6.1 -25.87,-10.96 -39.49,-14.56 c -12.43,-3.04 -24.73,-4.98 -37.49,-5.94 c -0.72,-1.4 -1.88,-1.95 -3.47,-1.65 c -6.03,0.11 -12.05,0.13 -18.07,0.06 c -1.18,0.12 -3.17,0.21 -3.64,1.56 Z M 243.99,54.88 c 0.35,0.59 0.87,0.87 1.57,0.84 c 7.25,-0.07 14.5,-0.11 21.75,-0.12 c 0.36,-0.13 0.58,-0.37 0.68,-0.73 c 3.08,0.22 6.17,0.38 9.26,0.47 c 2.62,0.61 5.28,0.98 7.97,1.09 c 6.73,1.01 13.4,2.33 20.01,3.94 c 19.62,5.15 38.16,12.9 55.62,23.25 c 5.18,3.08 10.18,6.43 15.01,10.03 c 6.21,4.7 12.21,9.68 17.99,14.92 c 4.55,4.31 8.87,8.84 12.96,13.59 c 2.99,3.23 5.87,6.56 8.62,9.99 c 1.42,2.06 2.85,4.11 4.3,6.14 c 3.34,4.57 6.48,9.28 9.42,14.13 c 0.21,0.28 0.48,0.39 0.81,0.31 c 0.04,0.82 0.24,1.59 0.61,2.33 c 1.65,2.69 3.19,5.46 4.62,8.29 c 5.94,11.36 10.73,23.18 14.38,35.45 c 1.91,6.94 3.57,13.92 5,20.97 c 0.77,4.34 1.46,8.69 2.05,13.05 c 0.12,2.74 0.28,5.48 0.49,8.21 c -0.36,0.09 -0.6,0.31 -0.74,0.65 c -0.03,9.61 -0.04,19.22 0,28.83 c -0.04,0.64 0.2,1.15 0.72,1.51 c -2.27,31.94 -12.7,62.83 -29.36,90.18 c -2.62,4.03 -5.26,8.04 -7.94,12.03 c -0.65,0.85 -1.34,1.66 -2.09,2.43 c -2.78,3.87 -5.74,7.6 -8.9,11.18 c -2.13,2.67 -4.4,5.22 -6.8,7.66 c -4.45,4.73 -9.17,9.16 -14.16,13.3 c -3.56,3.15 -7.27,6.11 -11.14,8.87 c -4.49,3.41 -9.1,6.64 -13.84,9.71 c -4.21,2.47 -8.44,4.92 -12.67,7.35 c -15.32,7.76 -31.3,13.71 -47.95,17.85 c -5.35,0.97 -10.69,1.99 -16,3.07 c -4.7,0.85 -9.45,1.33 -14.23,1.43 c -0.36,-0.54 -0.87,-0.79 -1.53,-0.75 c -9.33,0.01 -18.65,0.01 -27.97,0.02 c -0.59,-0.09 -1.07,0.09 -1.45,0.52 c -2.76,0.04 -5.51,-0.07 -8.26,-0.31 c -6.02,-0.98 -12.04,-1.96 -18.06,-2.95 c -28.91,-6.32 -57.08,-18.64 -80.47,-36.91 c -0.72,-0.4 -1.42,-0.83 -2.1,-1.29 c -3.46,-2.7 -6.79,-5.56 -10,-8.57 c -1.64,-1.18 -3.17,-2.5 -4.58,-3.96 c -3.69,-3.64 -7.34,-7.32 -10.93,-11.06 c -3.38,-3.96 -6.71,-7.97 -10,-12.01 c -1.13,-1.74 -2.33,-3.39 -3.59,-4.97 c -2.8,-3.91 -5.49,-7.88 -8.05,-11.93 c -11.25,-17.84 -19.15,-37.36 -24.66,-57.69 c -0.9,-4.69 -1.9,-9.37 -2.99,-14.01 c -0.72,-4.64 -1.4,-9.29 -2.04,-13.95 c -0.09,-3.09 -0.25,-6.18 -0.47,-9.26 c 0.62,-0.32 0.89,-0.84 0.81,-1.55 c 0.01,-6.99 0.02,-13.97 0.02,-20.96 c 0.06,-0.69 -0.21,-1.19 -0.81,-1.5 c 1.32,-22.19 6.14,-43.6 14.44,-64.22 c 6.01,-14.34 13.46,-27.88 22.35,-40.62 c 2.79,-3.69 5.66,-7.32 8.6,-10.9 c 3.06,-3.76 6.2,-7.46 9.43,-11.1 c 2.52,-2.48 5.02,-4.98 7.5,-7.5 c 4.8,-4.41 9.77,-8.61 14.9,-12.6 c 20.35,-15.8 42.9,-27.36 67.63,-34.69 c 7,-1.8 14.03,-3.45 21.09,-4.96 c 4.66,-0.63 9.31,-1.31 13.94,-2.04 c 3.08,-0.16 6.16,-0.32 9.23,-0.48 Z M 173.8,323.99 c 0.01,3.19 0.01,6.38 0.01,9.57 c -0.02,0.61 0.23,1.08 0.75,1.4 c 18.63,0.17 37.25,0.17 55.88,0 c 0.66,-0.66 0.92,-1.48 0.77,-2.44 c -0.32,-1.87 0.62,-9.68 -0.61,-10.69 c -5.33,-0.79 -10.68,-1.47 -16.06,-2.05 c -1.26,-0.39 -1.56,-1.21 -0.89,-2.47 c 2.65,-9.01 5.4,-17.97 8.26,-26.89 c 0.82,-0.37 1.68,-0.51 2.58,-0.43 c 18.01,0.01 36.01,0.02 54.02,0 c 1.21,0.08 1.91,0.73 2.09,1.96 c 2.68,8.86 5.32,17.73 7.91,26.62 c -0.08,0.66 -0.46,1.02 -1.14,1.1 c -5.02,0.59 -10,1.35 -14.95,2.25 c -0.88,1.52 -0.2,9.37 -0.43,11.6 c -0.04,0.58 0.17,1.04 0.63,1.39 c 21.3,0.17 42.61,0.24 63.92,0.21 c 0.65,0.06 1.19,-0.14 1.64,-0.61 c 0.32,-3.68 0.42,-7.39 0.32,-11.12 c -0.02,-0.62 -0.25,-1.17 -0.66,-1.63 c -3.71,-0.79 -7.44,-1.49 -11.19,-2.1 c -0.72,-0.16 -1.23,-0.57 -1.51,-1.24 c -16.56,-50.43 -33.2,-100.82 -49.94,-151.17 c -0.83,-0.48 -1.72,-0.68 -2.68,-0.59 c -10.02,0.02 -20.03,0.03 -30.05,0.01 c -0.95,-0.06 -1.74,0.27 -2.35,0.98 c -17.53,50.16 -35.06,100.33 -52.58,150.49 c -0.29,0.64 -0.76,1.1 -1.4,1.38 c -3.76,0.65 -7.52,1.31 -11.28,1.97 c -0.89,0.58 -1.25,1.42 -1.06,2.5 Z M 226.27,273.72 c 8.25,-27.84 18.45,-55.69 25.34,-83.85 c 0.18,-0.37 0.48,-0.59 0.88,-0.66 c 1.25,5.6 2.55,11.21 3.88,16.83 c 6.39,22.45 12.61,44.93 18.65,67.46 c -0.32,0.54 -0.8,0.78 -1.44,0.73 c -14.69,-0.03 -29.39,-0.03 -44.08,-0.01 c -1.12,0.07 -2.19,-0.1 -3.23,-0.5 Z"/></g>
<g><path fill="#836213" fill-opacity="0.537" d="M 408.8,387.84 c -0.02,0.85 0.14,1.67 0.46,2.45 c -6.11,6.53 -12.43,12.85 -18.96,18.96 c -0.8,-0.27 -1.61,-0.42 -2.46,-0.45 c 4.99,-4.14 9.71,-8.57 14.16,-13.3 c 2.4,-2.44 4.67,-4.99 6.8,-7.66 Z"/></g>
<g><path fill="#896721" fill-opacity="0.553" d="M 82.91,363.07 c 0.69,-0.15 1.4,-0.21 2.11,-0.16 c 2.56,4.05 5.25,8.02 8.05,11.93 c -0.54,0.4 -1,0.88 -1.37,1.44 c -3.08,-4.3 -6.01,-8.71 -8.79,-13.21 Z"/></g>
<g><path fill="#efe9d9" fill-opacity="0.925" d="M 457.11,241.03 c 1.04,10.34 1.04,20.66 -0.02,30.99 c -0.52,-0.36 -0.76,-0.87 -0.72,-1.51 c -0.04,-9.61 -0.03,-19.22 0,-28.83 c 0.14,-0.34 0.38,-0.56 0.74,-0.65 Z M 272.01,457.08 c -1.28,0.07 -2.55,0.25 -3.8,0.53 c -8.81,-0.04 -18.51,1.01 -27.15,-0.74 c 0.38,-0.43 0.86,-0.61 1.45,-0.52 c 9.32,-0.01 18.64,-0.01 27.97,-0.02 c 0.66,-0.04 1.17,0.21 1.53,0.75 Z"/></g>
<g><path fill="#8c6b24" fill-opacity="0.557" d="M 98.84,126.82 c 0.59,0.36 1.06,0.84 1.43,1.43 c -2.94,3.58 -5.81,7.21 -8.6,10.9 c -8.89,12.74 -16.34,26.28 -22.35,40.62 c -8.3,20.62 -13.12,42.03 -14.44,64.22 c -0.8,8.01 -0.8,16.01 -0.02,24.01 c 0.22,3.08 0.38,6.17 0.47,9.26 c 0.64,4.66 1.32,9.31 2.04,13.95 c 1.09,4.64 2.09,9.32 2.99,14.01 c 5.51,20.33 13.41,39.85 24.66,57.69 c -0.71,-0.05 -1.42,0.01 -2.11,0.16 c -17.67,-28.83 -27.69,-60.26 -29.98,-94.01 c 0.04,-2.53 -0.08,-5.05 -0.37,-7.56 c -0.05,-5.88 0.06,-11.75 0.31,-17.62 c 0.59,-4.44 0.99,-8.89 1.2,-13.37 c 0.9,-5.68 1.87,-11.35 2.91,-17 c 1.14,-5.06 2.44,-10.08 3.89,-15.06 c 1.82,-5.77 3.79,-11.49 5.91,-17.16 c 3.75,-9.27 8.08,-18.26 13.01,-26.97 c 5.75,-9.59 12.1,-18.75 19.05,-27.5 Z M 431.01,151.97 c 9.78,16.5 17.16,34.01 22.13,52.53 c 0.86,4.01 1.78,8.02 2.76,12.02 c 0.88,4.3 1.6,8.63 2.15,12.98 c 0.82,6.99 1.41,14 1.75,21.02 c 0.02,3.65 0.02,7.31 0.01,10.96 c -0.35,4.66 -0.66,9.33 -0.92,14.01 c -0.94,6.67 -1.92,13.34 -2.95,20 c -6.28,30.48 -19.04,58.79 -37.64,83.77 c -0.03,-0.91 -0.23,-1.77 -0.6,-2.6 c 0.75,-0.77 1.44,-1.58 2.09,-2.43 c 2.68,-3.99 5.32,-8 7.94,-12.03 c 16.66,-27.35 27.09,-58.24 29.36,-90.18 c 1.06,-10.33 1.06,-20.65 0.02,-30.99 c -0.21,-2.73 -0.37,-5.47 -0.49,-8.21 c -0.59,-4.36 -1.28,-8.71 -2.05,-13.05 c -1.43,-7.05 -3.09,-14.03 -5,-20.97 c -3.65,-12.27 -8.44,-24.09 -14.38,-35.45 c -1.43,-2.83 -2.97,-5.6 -4.62,-8.29 c -0.37,-0.74 -0.57,-1.51 -0.61,-2.33 c 0.35,-0.25 0.7,-0.5 1.05,-0.76 Z M 134.27,416.7 c 23.39,18.27 51.56,30.59 80.47,36.91 c 6.02,0.99 12.04,1.97 18.06,2.95 c 2.75,0.24 5.5,0.35 8.26,0.31 c 8.64,1.75 18.34,0.7 27.15,0.74 c 1.25,-0.28 2.52,-0.46 3.8,-0.53 c 4.78,-0.1 9.53,-0.58 14.23,-1.43 c 5.31,-1.08 10.65,-2.1 16,-3.07 c 16.65,-4.14 32.63,-10.09 47.95,-17.85 c 4.23,-2.43 8.46,-4.88 12.67,-7.35 c 4.74,-3.07 9.35,-6.3 13.84,-9.71 c 0.5,0.42 0.96,0.88 1.4,1.37 c -21.87,16.51 -47.15,28.07 -73.64,34.94 c -6.93,1.63 -13.92,2.95 -20.96,3.97 c -4.34,0.36 -8.68,0.81 -13.01,1.33 c -6.31,0.53 -12.64,0.72 -18.99,0.55 c -1.12,0.03 -2.21,-0.15 -3.27,-0.51 c -3.91,0.11 -7.82,-0.04 -11.71,-0.45 c -4.7,-0.47 -9.37,-1.09 -14.02,-1.85 c -6.03,-1.12 -12.03,-2.42 -17.99,-3.89 c -4.69,-1.23 -9.32,-2.65 -13.91,-4.24 c -21.11,-7.43 -39.96,-17.35 -57.76,-30.83 c 0.42,-0.52 0.89,-0.97 1.43,-1.36 Z"/></g>
<g><path fill="#84621a" fill-opacity="0.541" d="M 131.9,94.93 c 0.07,0.71 0.14,1.41 0.2,2.12 c -5.13,3.99 -10.1,8.19 -14.9,12.6 c -2.48,2.52 -4.98,5.02 -7.5,7.5 c -3.23,3.64 -6.37,7.34 -9.43,11.1 c -0.37,-0.59 -0.84,-1.07 -1.43,-1.43 c 9.82,-11.89 20.84,-22.52 33.06,-31.89 Z M 407.28,119.7 c 4.61,5.12 8.96,10.44 13.05,15.98 c -0.17,0.87 -0.37,1.74 -0.6,2.61 c -1.45,-2.03 -2.88,-4.08 -4.3,-6.14 c -2.75,-3.43 -5.63,-6.76 -8.62,-9.99 c 0.13,-0.82 0.29,-1.64 0.47,-2.46 Z M 417.7,376.66 c 0.37,0.83 0.57,1.69 0.6,2.6 c -2.94,3.74 -5.96,7.41 -9.04,11.03 c -0.32,-0.78 -0.48,-1.6 -0.46,-2.45 c 3.16,-3.58 6.12,-7.31 8.9,-11.18 Z M 119.71,407.31 c 0.82,-0.16 1.64,-0.32 2.46,-0.47 c 3.21,3.01 6.54,5.87 10,8.57 c 0.68,0.46 1.38,0.89 2.1,1.29 c -0.54,0.39 -1.01,0.84 -1.43,1.36 c -4.5,-3.42 -8.88,-7.01 -13.13,-10.75 Z M 387.84,408.8 c 0.85,0.03 1.66,0.18 2.46,0.45 c -3.91,3.46 -7.98,6.72 -12.2,9.79 c -0.44,-0.49 -0.9,-0.95 -1.4,-1.37 c 3.87,-2.76 7.58,-5.72 11.14,-8.87 Z"/></g>
<g><path fill="#89671f" fill-opacity="0.553" d="M 243.88,52.89 c 5.87,-0.26 11.74,-0.37 17.62,-0.32 c 2.5,0.43 5.02,0.55 7.56,0.35 c 12.76,0.96 25.06,2.9 37.49,5.94 c 13.62,3.6 26.78,8.46 39.49,14.56 c 5.89,3.06 11.69,6.3 17.39,9.7 c 5.65,3.65 11.18,7.48 16.6,11.48 c 9.75,7.62 18.84,15.99 27.25,25.1 c -0.18,0.82 -0.34,1.64 -0.47,2.46 c -4.09,-4.75 -8.41,-9.28 -12.96,-13.59 c -5.78,-5.24 -11.78,-10.22 -17.99,-14.92 c -4.83,-3.6 -9.83,-6.95 -15.01,-10.03 c -17.46,-10.35 -36,-18.1 -55.62,-23.25 c -6.61,-1.61 -13.28,-2.93 -20.01,-3.94 c -2.69,-0.11 -5.35,-0.48 -7.97,-1.09 c -3.09,-0.09 -6.18,-0.25 -9.26,-0.47 c -8,-0.81 -16,-0.8 -24,0.01 c -3.07,0.16 -6.15,0.32 -9.23,0.48 c -4.63,0.73 -9.28,1.41 -13.94,2.04 c -7.06,1.51 -14.09,3.16 -21.09,4.96 c -24.73,7.33 -47.28,18.89 -67.63,34.69 c -0.06,-0.71 -0.13,-1.41 -0.2,-2.12 c 3.36,-2.4 6.71,-4.86 10.03,-7.38 c 21.69,-14.54 46.08,-24.95 71.57,-30.56 c 5.65,-1.13 11.32,-2.1 17.01,-2.92 c 4.47,-0.31 8.92,-0.7 13.37,-1.18 Z M 420.33,135.68 c 3.77,5.29 7.33,10.73 10.68,16.29 c -0.35,0.26 -0.7,0.51 -1.05,0.76 c -0.33,0.08 -0.6,-0.03 -0.81,-0.31 c -2.94,-4.85 -6.08,-9.56 -9.42,-14.13 c 0.23,-0.87 0.43,-1.74 0.6,-2.61 Z M 93.07,374.84 c 1.26,1.58 2.46,3.23 3.59,4.97 c 3.29,4.04 6.62,8.05 10,12.01 c 3.59,3.74 7.24,7.42 10.93,11.06 c 1.41,1.46 2.94,2.78 4.58,3.96 c -0.82,0.15 -1.64,0.31 -2.46,0.47 c -5.37,-5.12 -10.6,-10.39 -15.67,-15.8 c -4.32,-4.91 -8.44,-9.99 -12.34,-15.23 c 0.37,-0.56 0.83,-1.04 1.37,-1.44 Z"/></g>
<g><path fill="#ece6d4" fill-opacity="0.914" d="M 269.06,52.92 c -2.54,0.2 -5.06,0.08 -7.56,-0.35 c -5.88,-0.05 -11.75,0.06 -17.62,0.32 c 0.47,-1.35 2.46,-1.44 3.64,-1.56 c 6.02,0.07 12.04,0.05 18.07,-0.06 c 1.59,-0.3 2.75,0.25 3.47,1.65 Z M 267.99,54.87 c -0.1,0.36 -0.32,0.6 -0.68,0.73 c -7.25,0.01 -14.5,0.05 -21.75,0.12 c -0.7,0.03 -1.22,-0.25 -1.57,-0.84 c 8,-0.81 16,-0.82 24,-0.01 Z M 52.87,243.88 c -0.25,5.87 -0.36,11.74 -0.31,17.62 c 0.29,2.51 0.41,5.03 0.37,7.56 c -0.82,-0.29 -1.33,-0.85 -1.53,-1.68 c -0.09,-6.95 -0.08,-13.9 0.04,-20.85 c 0.03,-1.14 0.51,-2.03 1.43,-2.65 Z M 54.88,243.99 c 0.6,0.31 0.87,0.81 0.81,1.5 c 0,6.99 -0.01,13.97 -0.02,20.96 c 0.08,0.71 -0.19,1.23 -0.81,1.55 c -0.78,-8 -0.78,-16 0.02,-24.01 Z"/></g>
<g><path fill="#2c2416" stroke="#2c2416" stroke-width="0.5" d="M 173.8,323.99 c -0.19,-1.08 0.17,-1.92 1.06,-2.5 c 3.76,-0.66 7.52,-1.32 11.28,-1.97 c 0.64,-0.28 1.11,-0.74 1.4,-1.38 c 17.52,-50.16 35.05,-100.33 52.58,-150.49 c 0.61,-0.71 1.4,-1.04 2.35,-0.98 c 10.02,0.02 20.03,0.01 30.05,-0.01 c 0.96,-0.09 1.85,0.11 2.68,0.59 c 16.74,50.35 33.38,100.74 49.94,151.17 c 0.28,0.67 0.79,1.08 1.51,1.24 c 3.75,0.61 7.48,1.31 11.19,2.1 c 0.41,0.46 0.64,1.01 0.66,1.63 c 0.1,3.73 0,7.44 -0.32,11.12 c -0.45,0.47 -0.99,0.67 -1.64,0.61 c -21.31,0.03 -42.62,-0.04 -63.92,-0.21 c -0.46,-0.35 -0.67,-0.81 -0.63,-1.39 c 0.23,-2.23 -0.45,-10.08 0.43,-11.6 c 4.95,-0.9 9.93,-1.66 14.95,-2.25 c 0.68,-0.08 1.06,-0.44 1.14,-1.1 c -2.59,-8.89 -5.23,-17.76 -7.91,-26.62 c -0.18,-1.23 -0.88,-1.88 -2.09,-1.96 c -18.01,0.02 -36.01,0.01 -54.02,0 c -0.9,-0.08 -1.76,0.06 -2.58,0.43 c -2.86,8.92 -5.61,17.88 -8.26,26.89 c -0.67,1.26 -0.37,2.08 0.89,2.47 c 5.38,0.58 10.73,1.26 16.06,2.05 c 1.23,1.01 0.29,8.82 0.61,10.69 c 0.15,0.96 -0.11,1.78 -0.77,2.44 c -18.63,0.17 -37.25,0.17 -55.88,0 c -0.52,-0.32 -0.77,-0.79 -0.75,-1.4 c 0,-3.19 0,-6.38 -0.01,-9.57 Z M 226.27,273.72 c 1.04,0.4 2.11,0.57 3.23,0.5 c 14.69,-0.02 29.39,-0.02 44.08,0.01 c 0.64,0.05 1.12,-0.19 1.44,-0.73 c -6.04,-22.53 -12.26,-45.01 -18.65,-67.46 c -1.33,-5.62 -2.63,-11.23 -3.88,-16.83 c -0.4,0.07 -0.7,0.29 -0.88,0.66 c -6.89,28.16 -17.09,56.01 -25.34,83.85 Z M 226.22,275.18 c 0.29,0.46 0.72,0.69 1.27,0.7 c 15.35,0.07 30.71,0.09 46.06,0.09 c 1.59,-0.27 1.59,-0.57 0,-0.89 c -1.35,-0.02 -2.71,-0.04 -4.06,-0.06 c -14.43,-0.07 -28.85,-0.02 -43.27,0.16 Z"/></g>
<g><path fill="#6a500f" fill-opacity="0.455" d="M 225.13,1.72 c -2.4,1.36 -4.96,1.85 -7.69,1.48 c -2.22,0.76 -3.59,1.21 -6.03,1.03 c -6.27,1.21 -12.52,2.57 -18.73,4.09 c -9.42,2.66 -18.75,5.66 -27.97,9.01 c -10.5,4.18 -20.74,8.92 -30.71,14.25 c -4.47,2.48 -8.91,5.04 -13.31,7.68 c -4,2.63 -7.98,5.27 -11.96,7.93 c -0.58,0.75 -1.22,1.42 -1.94,2.02 c -1.68,0.53 -3.02,1.52 -4.02,2.97 c -2.17,1.13 -4.2,2.48 -6.09,4.06 c -4.93,4.08 -9.8,8.24 -14.59,12.49 c -4.47,4.43 -8.92,8.89 -13.36,13.36 c -2.42,2.82 -3.95,5.75 -7.05,8.01 c -2.71,3.29 -5.38,6.61 -8.02,9.95 c -0.55,0.88 -1.03,1.8 -1.41,2.76 c -0.67,0.65 -1.35,1.28 -2.05,1.89 c -0.55,1.68 -1.55,3.02 -3,4.02 c -0.49,1.69 -1.45,3.04 -2.87,4.08 c -0.83,1.7 -1.21,3.49 -3.56,3.22 c 20.72,-31.56 47.03,-57.45 78.93,-77.66 c 8.54,-5.32 17.35,-10.14 26.44,-14.48 c 8.65,-3.98 17.44,-7.61 26.36,-10.9 c 5.63,-1.83 11.27,-3.55 16.92,-5.18 c 4.05,-0.83 8.06,-1.82 12.03,-2.97 c 4.37,-0.66 8.72,-1.41 13.06,-2.25 c 1.75,-0.34 3.42,-0.91 5,-1.71 c 0.96,-0.07 6.04,-0.99 5.62,0.85 Z M 510.04,290.71 c 0.92,0.27 1.35,0.9 1.28,1.88 c -0.66,2.48 -1.44,4.95 -2.35,7.39 c -1.02,-2.18 -0.06,-4.97 -0.4,-7.32 c 0.24,-0.83 0.73,-1.48 1.47,-1.95 Z M 431.01,444.16 c -5.41,5.03 -10.96,9.91 -16.63,14.64 c -6.11,4.58 -12.35,8.99 -18.72,13.23 c -3.2,1.76 -6.3,3.7 -9.29,5.82 c -8.6,4.45 -17.13,9.03 -25.94,13.12 c -0.78,0.26 -1.58,0.35 -2.4,0.26 c 0.17,-0.69 0.6,-1.15 1.29,-1.38 c 7.78,-3.39 15.36,-7.17 22.74,-11.35 c 3.25,-2.16 6.58,-4.16 10.01,-5.99 c 2.98,-1.93 5.89,-3.95 8.73,-6.07 c 1.34,-0.24 2.32,-0.96 2.94,-2.18 c 1.54,-0.68 2.9,-1.62 4.06,-2.83 c 2.3,-0.38 1.92,-1.42 3.42,-2.73 c 6.48,-3.81 12.12,-9.26 17.73,-14.24 c 0.64,-0.42 1.33,-0.51 2.06,-0.3 Z M 115.89,470.96 c 1.18,-0.17 2.3,0.04 3.34,0.62 c 1.54,1.02 3.05,2.06 4.54,3.13 c 4.62,2.67 9.27,5.34 13.93,8 c 6.25,3.4 12.73,6.3 19.43,8.7 c 0.7,0.79 3.07,1.74 2.74,2.76 c -1.95,-0.45 -3.83,-1.12 -5.62,-2 c -2.9,-1.48 -5.85,-2.87 -8.83,-4.17 c -5.77,-2.82 -11.48,-5.74 -17.12,-8.78 c -3.5,-2.28 -7.06,-4.43 -10.7,-6.47 c -0.63,-0.54 -1.19,-1.14 -1.71,-1.79 Z"/></g>
<g><path fill="#6a500f" fill-opacity="0.49" d="M 381.98,32.79 c 0.81,0.09 1.57,0.32 2.3,0.67 c 31.18,18.09 57.48,41.65 78.9,70.67 c 2.24,2.8 4.24,5.75 6,8.85 c -1.21,-0.11 -2.19,-0.67 -2.94,-1.68 c -0.71,-1.55 -1.67,-2.9 -2.88,-4.07 c -0.14,-1.41 -0.87,-2.38 -2.18,-2.91 c -1.48,-2.77 -3.25,-5.36 -5.3,-7.76 c -3.74,-4.55 -7.55,-9.06 -11.41,-13.52 c -7.45,-7.88 -15.29,-15.33 -23.54,-22.35 c -2.3,-1.41 -4.05,-1.98 -5.41,-4.62 c -0.78,-0.33 -1.55,-0.66 -2.32,-1 c -1.46,-1.46 -3.01,-2.82 -4.66,-4.07 c -3.64,-2.7 -7.34,-5.34 -11.08,-7.9 c -4.89,-3.16 -9.87,-6.22 -14.94,-9.17 c -0.36,-0.3 -0.54,-0.68 -0.54,-1.14 Z M 32.76,383.02 c 2.31,-0.34 5.44,6.61 6.46,8.32 c 2.32,3.31 4.64,6.62 6.96,9.91 c 0.82,1.78 1.81,3.48 2.96,5.07 c 1.76,1.54 2.47,1.53 2.98,4.03 c 1.86,1.3 3.24,2.82 4.01,5.02 c 2.29,1.57 3.17,3.25 4.56,5.56 c 7.02,8.25 14.47,16.09 22.35,23.54 c 2.77,2.17 5.44,4.45 8.02,6.84 c 2.43,1.17 4.45,2.83 6.07,4.98 c 2.03,1.82 4.27,3.31 6.73,4.47 c 1.47,1.34 1.05,2.33 3.38,2.63 c 1.2,1.19 2.56,2.16 4.1,2.89 c 1.05,0.76 1.58,1.77 1.59,3.03 c -4.34,-2.94 -8.61,-5.98 -12.81,-9.13 c -27.21,-20.98 -50.46,-47.23 -67.36,-77.16 Z M 465.19,405.1 c -3.11,4.56 -6.42,8.97 -9.93,13.24 c -0.79,0.09 -1.54,0.33 -2.23,0.73 c 0.68,-2.08 2.23,-3.4 3.86,-4.69 c 0.3,-0.75 0.65,-1.48 1.06,-2.17 c 1.52,-1.47 2.78,-3.14 3.77,-5 c 0.85,-1.26 2.01,-1.97 3.47,-2.11 Z M 159.87,494.17 c 1.82,-0.47 3.6,-0.3 5.34,0.52 c 8.49,3.54 17.2,6.39 26.12,8.56 c 1.08,0.46 2.16,0.91 3.24,1.34 c 2.26,0.68 4.57,1.13 6.92,1.36 c 0.44,0.29 0.64,0.69 0.6,1.21 c -0.88,0.04 -1.74,-0.04 -2.59,-0.25 c -6.31,-1.72 -12.62,-3.46 -18.92,-5.24 c -5.44,-1.78 -10.88,-3.58 -16.31,-5.38 c -1.43,-0.78 -2.9,-1.48 -4.4,-2.12 Z"/></g>
<g><path fill="#6b4f0f" fill-opacity="0.408" d="M 470.98,115.76 c 1.34,1.55 2.53,3.23 3.58,5.01 c 3.06,5.02 5.98,10.13 8.76,15.31 c 2.08,4.23 4.24,8.4 6.46,12.54 c 0.39,1.05 0.57,2.14 0.54,3.26 c -0.43,0 -0.78,-0.17 -1.05,-0.51 c -5.23,-11.5 -11.22,-22.59 -17.97,-33.28 c -0.31,-0.75 -0.42,-1.53 -0.32,-2.33 Z M 14.78,344.02 c 0.49,-0.08 0.9,0.08 1.22,0.46 c 1.89,4.22 3.66,8.5 5.31,12.82 c 2.94,6.56 6.1,13.01 9.48,19.36 c 0.3,0.85 0.35,1.72 0.14,2.6 c -2.95,-4.04 -4.85,-8.9 -7.18,-13.34 c -2.22,-4.84 -4.4,-9.7 -6.54,-14.57 c -0.82,-2.45 -1.63,-4.89 -2.43,-7.33 Z M 483.14,375.96 c -2.02,4.46 -4.35,8.77 -6.97,12.92 c -3.41,5.58 -7.07,10.99 -10.98,16.22 c -0.21,-0.74 -0.16,-1.46 0.16,-2.16 c 5.88,-8.36 11.26,-17.03 16.13,-26.02 c 0.37,-0.64 0.92,-0.96 1.66,-0.96 Z"/></g>
<g><path fill="#6a500f" fill-opacity="0.435" d="M 10.9,179.74 c 0.33,0.04 0.55,0.23 0.65,0.54 c -1.67,6.03 -3.26,12.09 -4.77,18.18 c -1.91,8.97 -3.55,17.99 -4.92,27.05 c -0.08,0.9 0.05,1.77 0.38,2.61 c -0.76,6.35 -0.98,12.72 -0.66,19.11 c -0.35,0.75 -0.88,1.35 -1.58,1.8 c 0,-8.33 0,-16.66 0,-24.99 c 0.3,-0.15 0.51,-0.39 0.6,-0.72 c 0.13,-2.17 -0.21,-3.12 1.25,-4.92 c 0.95,-5.98 2.02,-11.93 3.19,-17.84 c 1.39,-5.03 2.67,-10.08 3.83,-15.14 c 0.62,-1.91 1.3,-3.81 2.03,-5.68 Z M 504.23,320.14 c 0.13,1.46 0.05,2.91 -0.23,4.35 c -0.96,2.25 -1.65,4.57 -2.07,6.98 c -1.46,4.38 -3.06,8.7 -4.81,12.96 c -0.71,-0.25 -0.94,-0.73 -0.67,-1.44 c 2.65,-7.34 4.96,-14.78 6.91,-22.32 c 0.2,-0.34 0.49,-0.52 0.87,-0.53 Z M 496.24,346.04 c 0.49,2.25 -2.68,7.04 -3.19,9.54 c -0.24,0.88 -0.79,1.44 -1.66,1.67 c -0.11,-2.26 3.03,-8.17 3.77,-10.69 c 0.27,-0.36 0.63,-0.53 1.08,-0.52 Z"/></g>
<g><path fill="#6b4f10" fill-opacity="0.392" d="M 347.99,16.8 c 0.84,-0.06 1.68,-0.04 2.52,0.05 c 1.81,1.09 3.74,1.88 5.8,2.37 c 1.11,1.19 5.2,1.49 4.86,3.5 c -4.18,-1.66 -8.37,-3.3 -12.57,-4.92 c -0.37,-0.23 -0.58,-0.57 -0.61,-1 Z M 362.03,22.7 c 1.15,0 2.27,0.17 3.36,0.5 c 3.26,1.79 6.56,3.51 9.9,5.15 c 0.79,0.35 1.41,0.89 1.85,1.62 c -0.77,0.13 -1.51,0.03 -2.22,-0.28 c -3.82,-1.94 -7.69,-3.79 -11.6,-5.55 c -0.68,-0.26 -1.12,-0.74 -1.29,-1.44 Z M 36.06,123.73 c 0.2,0.9 0.15,1.79 -0.14,2.66 c -2.63,4.39 -5.15,8.85 -7.56,13.37 c -2.02,4.31 -4.05,8.62 -6.1,12.92 c -1.64,4.1 -3.29,8.19 -4.96,12.27 c -0.21,0.66 -0.33,1.33 -0.36,2.01 c -1.94,0.44 -0.99,4.05 -3.14,4.03 c -0.05,-0.81 0.08,-1.6 0.39,-2.35 c 3.06,-7.56 6.26,-15.08 9.62,-22.53 c 3.77,-7.47 7.56,-15.48 12.25,-22.38 Z M 5.74,309.79 c 0.53,0.85 0.92,1.77 1.17,2.75 c 0.94,5.41 2.52,10.7 4.12,15.96 c 0.28,1.2 0.27,2.41 -0.01,3.61 c -0.6,-0.41 -0.98,-0.97 -1.15,-1.68 c -1.57,-6.32 -3.22,-12.64 -4.94,-18.96 c -0.25,-0.84 0.02,-1.4 0.81,-1.68 Z"/></g>
<g><path fill="#6b500f" fill-opacity="0.494" d="M 490.31,152.97 c 0.62,0 1.09,0.26 1.41,0.8 c 1.49,3.53 3,7.04 4.52,10.55 c 2.8,8 5.39,16.06 7.78,24.19 c 0.58,1.81 0.96,3.64 1.14,5.51 c -0.48,0.12 -0.94,0.07 -1.38,-0.15 c -0.84,-2.72 -1.49,-5.5 -1.94,-8.33 c -0.75,-2.28 -1.47,-4.57 -2.15,-6.88 c -3.27,-8.52 -6.39,-17.08 -9.38,-25.69 Z"/></g>
<g><path fill="#6b4f0f" fill-opacity="0.357" d="M 317.98,6.79 c 0.86,0.13 1.72,0.19 2.58,0.19 c 2.22,0.97 4.53,1.61 6.93,1.92 c 2.66,0.71 5.24,1.65 7.72,2.83 c -0.89,0.32 -1.79,0.35 -2.7,0.12 c -4.33,-1.48 -8.73,-2.69 -13.22,-3.62 c -0.79,-0.16 -1.23,-0.64 -1.31,-1.44 Z M 508.33,301 c 1.59,-0.32 0.56,4.21 -0.08,4.93 c 0.25,1.79 -0.08,3.46 -1.01,5 c 0.14,2.23 -0.06,2.77 -1.04,4.69 c 0.39,1.43 0,2.56 -1.18,3.4 c -0.38,-0.44 -0.62,-0.94 -0.72,-1.5 c 1.12,-5.56 2.46,-11.07 4.03,-16.52 Z M 304.99,507.9 c -0.15,0.37 -0.38,0.68 -0.71,0.93 c -2.59,0.15 -5.14,0.59 -7.65,1.32 c -1.16,1.35 -5.66,2.06 -5.98,-0.12 c 0.49,-0.55 1.11,-0.87 1.86,-0.94 c 4.29,-0.18 8.11,-1.92 12.48,-1.19 Z"/></g>
<g><path fill="#6b5010" fill-opacity="0.8" d="M 296.85,4.29 c 2.42,-1.1 8.15,0.89 10.81,1.33 c 0.72,0.09 1.28,-0.17 1.69,-0.77 c 0.79,1.04 7.24,2.18 8.63,1.94 c 0.08,0.8 0.52,1.28 1.31,1.44 c 4.49,0.93 8.89,2.14 13.22,3.62 c 0.91,0.23 1.81,0.2 2.7,-0.12 c 1.08,0.6 2.04,1.33 2.88,2.19 c -0.82,0.14 -1.64,0.16 -2.46,0.08 c -6.61,-2.04 -13.28,-3.92 -20.01,-5.64 c -1.74,-0.14 -3.43,-0.52 -5.06,-1.13 c -0.81,-0.03 -1.61,-0.02 -2.41,0.01 c -1.58,-0.83 -3.24,-1.17 -5.01,-1.01 c -1.59,-0.72 -3.27,-1.1 -5.02,-1.16 c -0.48,-0.16 -0.9,-0.42 -1.27,-0.78 Z"/></g>
<g><path fill="#6a500f" fill-opacity="0.478" d="M 356.93,491.26 c 0.14,0.66 -0.1,1.14 -0.71,1.45 c -12.06,4.99 -24.37,9.16 -36.94,12.53 c -0.4,-1.93 -1.89,0.11 -3.3,-0.5 c 0.38,-0.29 0.78,-0.56 1.19,-0.8 c 3.35,-0.85 6.72,-1.62 10.13,-2.3 c 2.23,-0.72 4.46,-1.43 6.7,-2.14 c 7.73,-2.52 15.38,-5.26 22.93,-8.24 Z"/></g>
<g><path fill="#6a5010" fill-opacity="0.38" d="M 273.97,0 c 4.72,0.14 9.43,0.29 14.15,0.43 c 1.44,0.29 2.91,0.35 4.41,0.17 c 1.06,0.37 2.06,0.87 2.99,1.51 c 4.66,0.65 9.27,1.56 13.83,2.74 c -0.41,0.6 -0.97,0.86 -1.69,0.77 c -2.66,-0.44 -8.39,-2.43 -10.81,-1.33 c -1.69,-1.66 -16.92,-2.55 -19.82,-3.05 c -1.14,-0.15 -2.16,-0.56 -3.06,-1.24 Z"/></g>
<g><path fill="#6b5010" fill-opacity="0.765" d="M 263.95,0 c 3.34,0 6.68,0 10.02,0 c 0.9,0.68 1.92,1.09 3.06,1.24 c -0.16,0.76 -0.64,1.05 -1.46,0.88 c -3.28,-0.45 -6.57,-0.65 -9.89,-0.62 c -0.83,-0.19 -1.4,-0.69 -1.73,-1.5 Z M 16.94,166.96 c 0.05,0.79 -0.07,1.56 -0.35,2.31 c -1.9,4.95 -3.59,9.97 -5.06,15.08 c -0.86,4.06 -1.88,8.09 -3.06,12.08 c -1.42,6.33 -2.74,12.67 -3.96,19.04 c -0.25,1.78 -0.38,3.57 -0.39,5.37 c -0.73,2.13 -1.13,4.33 -1.21,6.59 c -0.11,0.35 -0.33,0.59 -0.67,0.69 c -0.33,-0.84 -0.46,-1.71 -0.38,-2.61 c 1.37,-9.06 3.01,-18.08 4.92,-27.05 c 1.51,-6.09 3.1,-12.15 4.77,-18.18 c -0.1,-0.31 -0.32,-0.5 -0.65,-0.54 c 1.35,-2.73 2.34,-5.75 2.9,-8.75 c 2.15,0.02 1.2,-3.59 3.14,-4.03 Z"/></g>
<g><path fill="#6b4f0f" fill-opacity="0.365" d="M 455.26,418.34 c -3.12,4.22 -6.53,8.18 -10.23,11.89 c -0.13,-0.82 0.02,-1.58 0.45,-2.28 c 2.56,-2.93 5.08,-5.89 7.55,-8.88 c 0.69,-0.4 1.44,-0.64 2.23,-0.73 Z M 319.28,505.24 c -0.28,0.24 -0.59,0.44 -0.91,0.6 c -2.51,0.32 -4.99,0.78 -7.45,1.39 c -0.82,0.51 -5.22,2.01 -4.98,-0.02 c 3.31,-0.99 6.65,-1.82 10.04,-2.47 c 1.41,0.61 2.9,-1.43 3.3,0.5 Z"/></g>
<g><path fill="#6a510f" fill-opacity="0.235" d="M 443.29,431.97 c -0.71,2.5 -7.47,7.92 -9.38,10.29 c -0.53,0.48 -1.16,0.77 -1.87,0.87 c -0.06,-0.45 0.04,-0.85 0.32,-1.21 c 3.01,-3.01 6.01,-6.03 9.01,-9.06 c 0.51,-0.58 1.15,-0.88 1.92,-0.89 Z"/></g>
<g><path fill="#21190b" d="M 226.22,275.18 c 14.42,-0.18 28.84,-0.23 43.27,-0.16 c 1.35,0.02 2.71,0.04 4.06,0.06 c 1.59,0.32 1.59,0.62 0,0.89 c -15.35,0 -30.71,-0.02 -46.06,-0.09 c -0.55,-0.01 -0.98,-0.24 -1.27,-0.7 Z"/></g>
</svg>
